<?xml version="1.0" encoding="UTF-8" standalone="no"?> <!-- Created with Vectornator for iOS (http://vectornator.io/) --><!DOCTYPE svg PUBLIC "-//W3C//DTD SVG 1.1//EN" "http://www.w3.org/Graphics/SVG/1.1/DTD/svg11.dtd">
<svg height="100%" style="fill-rule:nonzero;clip-rule:evenodd;stroke-linecap:round;stroke-linejoin:round;" xmlns:xlink="http://www.w3.org/1999/xlink" xmlns="http://www.w3.org/2000/svg" xml:space="preserve" width="100%" xmlns:vectornator="http://vectornator.io" version="1.1" viewBox="0 0 2000 830">
<metadata>
<vectornator:setting key="DimensionsVisible" value="1"/>
<vectornator:setting key="PencilOnly" value="0"/>
<vectornator:setting key="SnapToPoints" value="0"/>
<vectornator:setting key="OutlineMode" value="0"/>
<vectornator:setting key="CMYKEnabledKey" value="0"/>
<vectornator:setting key="RulersVisible" value="1"/>
<vectornator:setting key="SnapToEdges" value="0"/>
<vectornator:setting key="GuidesVisible" value="1"/>
<vectornator:setting key="DisplayWhiteBackground" value="0"/>
<vectornator:setting key="doHistoryDisabled" value="0"/>
<vectornator:setting key="SnapToGuides" value="1"/>
<vectornator:setting key="TimeLapseWatermarkDisabled" value="0"/>
<vectornator:setting key="Units" value="Pixels"/>
<vectornator:setting key="DynamicGuides" value="0"/>
<vectornator:setting key="IsolateActiveLayer" value="0"/>
<vectornator:setting key="SnapToGrid" value="0"/>
</metadata>
<defs>
<linearGradient y1="719.982" id="LinearGradient" x1="414.265" y2="719.982" x2="1156.4" gradientUnits="userSpaceOnUse" gradientTransform="matrix(0.560272 0.565345 -0.560272 0.565345 367.127 -434.153)">
<stop stop-color="#e54343" offset="0"/>
<stop stop-color="#ff3a3a" offset="0"/>
</linearGradient>
<linearGradient y1="92.5127" id="LinearGradient_2" x1="1109.79" y2="316.735" x2="1110.95" gradientUnits="userSpaceOnUse" gradientTransform="matrix(1 0 0 1 0 0)">
<stop stop-color="#e54343" offset="0"/>
<stop stop-color="#ffffff" offset="0"/>
</linearGradient>
<linearGradient y1="92.5127" id="LinearGradient_3" x1="1109.79" y2="316.735" x2="1110.95" gradientUnits="userSpaceOnUse" gradientTransform="matrix(1 0 0 1 0 0)">
<stop stop-color="#e54343" offset="0"/>
<stop stop-color="#ffffff" offset="0"/>
</linearGradient>
<linearGradient y1="92.5127" id="LinearGradient_4" x1="1109.79" y2="316.735" x2="1110.95" gradientUnits="userSpaceOnUse" gradientTransform="matrix(1 0 0 1 0 0)">
<stop stop-color="#e54343" offset="0"/>
<stop stop-color="#ffffff" offset="0"/>
</linearGradient>
<linearGradient y1="92.5127" id="LinearGradient_5" x1="1109.79" y2="316.735" x2="1110.95" gradientUnits="userSpaceOnUse" gradientTransform="matrix(1 0 0 1 0 0)">
<stop stop-color="#e54343" offset="0"/>
<stop stop-color="#ffffff" offset="0"/>
</linearGradient>
<linearGradient y1="92.5127" id="LinearGradient_6" x1="1109.79" y2="316.735" x2="1110.95" gradientUnits="userSpaceOnUse" gradientTransform="matrix(1 0 0 1 0 0)">
<stop stop-color="#e54343" offset="0"/>
<stop stop-color="#ffffff" offset="0"/>
</linearGradient>
</defs>
<g id="Layer 1" vectornator:layerName="Layer 1">
<path d="M405.597+18.6135C391.279+18.6135+376.959+24.0641+366.035+34.9885L318.941+82.0823L380.285+143.426C387.463+140.953+395.142+139.551+403.16+139.551C441.972+139.551+473.441+171.021+473.441+209.832C473.441+217.84+472.033+225.506+469.566+232.676L599.254+362.364C606.628+359.736+614.539+358.239+622.816+358.239C661.628+358.239+693.098+389.708+693.097+428.52C693.097+467.331+661.628+498.801+622.816+498.801C584.005+498.801+552.535+467.331+552.535+428.52C552.535+419.806+554.198+411.501+557.097+403.801L433.191+279.895L433.191+539.27C457.211+550.442+473.879+574.722+473.879+602.957C473.879+641.769+442.44+673.239+403.629+673.239C364.817+673.239+333.347+641.769+333.347+602.957C333.347+574.7+350.049+550.399+374.097+539.239L374.097+273.77C349.807+262.705+332.879+238.265+332.879+209.832C332.879+200.85+334.619+192.291+337.691+184.395L277.16+123.864L21.8475+379.176C-0.00126796+401.025-0.00129339+436.452+21.8475+458.301L362.316+798.739C384.165+820.587+419.592+820.587+441.441+798.739L785.629+454.582C807.477+432.734+807.477+397.306+785.629+375.457L445.16+34.9885C434.236+24.0642+419.916+18.6135+405.597+18.6135Z" opacity="1" fill="url(#LinearGradient)"/>
<g opacity="1">
<path d="M1058+362.72L1044.94+431.921L1010.25+431.921L1010.25+383.238L1004.47+376.896C1000.37+376.523+997.319+376.305+995.329+376.243C993.339+376.181+991.412+376.15+989.547+376.15C954.853+376.15+927.03+387.714+906.078+410.843C885.125+433.972+874.648+464.624+874.648+502.799C874.648+530.778+881.55+551.979+895.352+566.404C909.155+580.828+929.486+588.165+956.346+588.414L970.894+512.126L966.604+506.343L938.066+504.105L938.066+481.163L1064.53+481.163L1064.53+503.359L1039.54+506.343L1033.94+511.379L1017.15+596.807C1001.11+602.9+985.226+607.501+969.496+610.61C953.765+613.719+938.315+615.273+923.144+615.273C886.213+615.273+857.115+605.667+835.851+586.455C814.588+567.243+803.956+541.037+803.956+507.836C803.956+482.22+809.023+458.78+819.158+437.516C829.292+416.253+843.934+398.16+863.084+383.238C878.006+371.798+894.948+363.156+913.912+357.311C932.875+351.467+953.361+348.545+975.371+348.545C989.298+348.545+1003.07+349.726+1016.69+352.088C1030.3+354.451+1044.07+357.995+1058+362.72Z" opacity="1" fill="url(#LinearGradient_2)"/>
<path d="M1222.42+494.406L1210.86+457.101C1196.93+463.07+1185.92+471.463+1177.84+482.282C1169.76+493.1+1164.35+506.716+1161.61+523.13L1147.07+610.61L1084.58+610.61L1114.98+455.982L1081.41+453.184L1081.41+436.397L1159.38+417.745L1177.66+417.745L1167.77+469.971C1183.94+449.951+1197.55+435.837+1208.62+427.63C1219.69+419.423+1230.38+415.32+1240.7+415.32C1250.4+415.32+1258.17+418.522+1264.02+424.926C1269.86+431.33+1272.78+439.754+1272.78+450.2C1272.78+463.505+1268.24+474.168+1259.17+482.189C1250.09+490.209+1237.84+494.282+1222.42+494.406Z" opacity="1" fill="url(#LinearGradient_3)"/>
<path d="M1406.05+439.568C1405.31+439.319+1404.59+439.164+1403.91+439.102C1403.22+439.039+1402.14+439.008+1400.64+439.008C1383.86+439.008+1369.65+447.993+1358.02+465.961C1346.4+483.929+1340.58+506.157+1340.58+532.643C1340.58+546.943+1343.04+557.606+1347.95+564.632C1352.86+571.658+1360.23+575.171+1370.05+575.171C1373.91+575.171+1378.63+574.238+1384.23+572.373C1389.83+570.507+1396.66+567.585+1404.75+563.606L1422.47+462.697L1406.05+439.568ZM1444.85+428.004L1466.67+417.372L1492.6+417.372L1467.42+541.596C1466.55+545.451+1465.9+549.182+1465.46+552.788C1465.03+556.394+1464.81+559.751+1464.81+562.86C1464.81+569.824+1466.39+575.264+1469.56+579.181C1472.74+583.098+1477.12+585.056+1482.71+585.056C1486.44+585.056+1490.58+584.528+1495.12+583.471C1499.66+582.414+1504.85+580.766+1510.69+578.528L1509.95+598.299C1496.89+603.398+1484.42+607.221+1472.55+609.771C1460.67+612.32+1449.33+613.594+1438.51+613.594C1426.94+613.594+1418.18+611.107+1412.21+606.133C1406.24+601.159+1403.26+593.885+1403.26+584.31C1390.94+594.134+1378.94+601.47+1367.26+606.32C1355.57+611.17+1344.13+613.594+1332.94+613.594C1314.53+613.594+1300.01+607.035+1289.38+593.916C1278.75+580.797+1273.43+562.798+1273.43+539.918C1273.43+520.395+1277.01+502.644+1284.16+486.665C1291.31+470.686+1302.1+456.231+1316.52+443.298C1325.85+434.967+1336.88+428.563+1349.63+424.087C1362.38+419.61+1375.96+417.372+1390.39+417.372C1398.09+417.372+1406.24+418.18+1414.82+419.796C1423.4+421.413+1433.41+424.149+1444.85+428.004Z" opacity="1" fill="url(#LinearGradient_4)"/>
<path d="M1585.21+605.947L1574.95+667.873L1610.95+675.893L1610.95+693.799L1485.61+693.799L1485.61+674.774L1511.16+667.127L1514.7+660.971L1550.14+455.609L1519.18+452.438L1519.18+434.905L1595.28+417.745L1618.97+417.745L1612.81+447.588C1624.63+437.516+1636.04+430.024+1647.04+425.112C1658.05+420.201+1668.9+417.745+1679.59+417.745C1697.25+417.745+1711.3+424.024+1721.74+436.584C1732.19+449.143+1737.41+465.992+1737.41+487.131C1737.41+523.068+1726.03+552.694+1703.28+576.01C1680.52+599.325+1651.74+610.983+1616.92+610.983C1612.81+610.983+1608.28+610.579+1603.3+609.771C1598.33+608.962+1592.3+607.688+1585.21+605.947ZM1589.13+582.258C1592.48+583.626+1595.78+584.621+1599.01+585.243C1602.24+585.865+1605.54+586.175+1608.9+586.175C1627.05+586.175+1642.16+577.284+1654.22+559.503C1666.28+541.721+1672.31+519.276+1672.31+492.168C1672.31+479.981+1669.92+470.624+1665.13+464.096C1660.35+457.567+1653.48+454.303+1644.52+454.303C1639.67+454.303+1634.39+455.422+1628.67+457.661C1622.95+459.899+1616.61+463.256+1609.64+467.733L1589.13+582.258Z" opacity="1" fill="url(#LinearGradient_5)"/>
<path d="M1852.59+329.519L1875.16+329.519L1847.55+457.474C1864.59+444.045+1879.51+434.066+1892.32+427.537C1905.13+421.009+1916.32+417.745+1925.89+417.745C1938.45+417.745+1948.8+421.693+1956.95+429.589C1965.09+437.485+1969.17+447.526+1969.17+459.712C1969.17+462.821+1968.79+466.8+1968.05+471.65C1967.3+476.5+1966.24+482.033+1964.88+488.251L1954.62+533.762C1953.13+540.353+1951.98+546.259+1951.17+551.482C1950.36+556.705+1949.95+560.87+1949.95+563.979C1949.95+571.316+1951.54+576.725+1954.71+580.207C1957.88+583.688+1962.82+585.429+1969.54+585.429C1972.28+585.429+1975.7+584.994+1979.8+584.124C1983.9+583.253+1988.75+581.885+1994.35+580.02L1994.35+598.299C1978.8+603.398+1965+607.221+1952.94+609.771C1940.88+612.32+1930.74+613.594+1922.54+613.594C1911.22+613.594+1902.45+610.952+1896.24+605.667C1890.02+600.382+1886.91+592.89+1886.91+583.191C1886.91+579.461+1887.78+573.119+1889.52+564.166C1889.77+563.046+1889.96+562.238+1890.08+561.741L1901.83+505.224C1903.08+499.504+1904.04+494.468+1904.72+490.116C1905.41+485.764+1905.75+482.282+1905.75+479.671C1905.75+473.329+1904.07+468.293+1900.71+464.562C1897.36+460.832+1892.88+458.966+1887.28+458.966C1882.68+458.966+1877.02+460.49+1870.31+463.536C1863.59+466.583+1855.01+471.65+1844.57+478.738L1820.51+610.61L1756.72+610.61L1807.08+365.705L1773.88+361.601L1773.5+346.679L1852.59+329.519Z" opacity="1" fill="url(#LinearGradient_6)"/>
</g>
</g>
</svg>
